<?xml version="1.0" encoding="utf-8"?>
<!-- Generator: Adobe Illustrator 26.0.1, SVG Export Plug-In . SVG Version: 6.00 Build 0)  -->
<svg version="1.1" id="Layer_1" xmlns="http://www.w3.org/2000/svg" xmlns:xlink="http://www.w3.org/1999/xlink" x="0px" y="0px"
	 viewBox="0 0 1417.32 1417.32" style="enable-background:new 0 0 1417.32 1417.32;" xml:space="preserve">
<style type="text/css">
	.st0{fill:#07638C;}
	.st1{fill:#CC0033;}
	.st2{fill:url(#SVGID_1_);}
	.st3{fill:url(#SVGID_00000112590925660929744000000017152314624673747629_);}
	.st4{fill:url(#SVGID_00000023982710955156640400000002667500376777470638_);}
	.st5{fill:url(#SVGID_00000166643749334318470590000007856275264460727688_);}
	.st6{fill:url(#SVGID_00000161589259935934268890000011634227720736202385_);}
	.st7{fill:url(#SVGID_00000181050285608001899060000000870324348845217926_);}
</style>
<g>
	<g>
		<path class="st0" d="M398.99,319.88l199.11-67.59l-12.79,84.03l-111.43,40.19c0,0-20.09,168.05,40.19,286.79
			s137,155.27,137,155.27s18.65-19.89,3.64-57.63c-5.14-12.91-13.09-24.52-22.85-34.41c-23.55-23.88-89.76-98.48-95.26-187.44
			c-6.7-108.38,42.62-138.83,42.62-138.83s-23.2,102.82,102.13,248.1c27.28,31.63,47.4,68.89,57.33,109.46
			c4.55,18.58,6.71,38.04,6.77,55.27c0.13,40.68,4.87,14-37.14,118.73c0,0-239.3-119.34-278.26-309.32s-31.05-305.66-31.05-305.66"
			/>
		<path class="st1" d="M666.94,141.59c-17.16,33.21-58.16,124.34-52.36,227.76c7.31,130.3,75.5,153.44,98.64,187.54
			c23.14,34.1,88.9,120.56,90.12,171.71c0,0,0,0,0,0c0,0,36.53-15.84,25.57-197.28c0,0,0,0,0,0c0.01,0.02,66.98,129.09,31.66,222.86
			c-35.31,93.76-73.06,137.6-73.07,137.61c0.01-0.01,67-25.62,134.41-126.04c44.78-66.71,73.22-143.01,84.59-222.55
			c8.59-60.1,16.64-144.7,9.94-223.77c0,0,0,0,0,0l-315.41-99.86c0,0,0,0,0,0c0,0.01,0,73.07,60.89,102.29l177.8,53.58c0,0,0,0,0,0
			c0,0,19.48,138.83-14.61,221.64c0,0,0,0,0,0c0-0.01-25.58-110.83-179.01-227.73C622.89,275.47,650.99,176.78,666.94,141.59"/>
	</g>
	<g>
		<g>
			<linearGradient id="SVGID_1_" gradientUnits="userSpaceOnUse" x1="404.8664" y1="1183.6272" x2="989.106" y2="927.9966">
				<stop  offset="0" style="stop-color:#FFF75D"/>
				<stop  offset="1.105675e-03" style="stop-color:#FFF65C"/>
				<stop  offset="0.0239" style="stop-color:#FFDF41"/>
				<stop  offset="0.0472" style="stop-color:#FFCE2E"/>
				<stop  offset="0.0711" style="stop-color:#FFC423"/>
				<stop  offset="0.0965" style="stop-color:#FFC11F"/>
				<stop  offset="0.1937" style="stop-color:#FE650D"/>
				<stop  offset="0.2955" style="stop-color:#F33C04"/>
				<stop  offset="0.3827" style="stop-color:#DA1F05"/>
				<stop  offset="0.5084" style="stop-color:#A10100"/>
				<stop  offset="0.6229" style="stop-color:#DA1F05"/>
				<stop  offset="0.7312" style="stop-color:#F33C04"/>
				<stop  offset="0.8361" style="stop-color:#FE650D"/>
				<stop  offset="0.933" style="stop-color:#FFC11F"/>
				<stop  offset="1" style="stop-color:#FFF75D"/>
			</linearGradient>
			<path class="st2" d="M393.48,989.13h95.48v28.99h-62.4v20.29H483v27.45h-56.44v42.62h-33.08V989.13z"/>
			
				<linearGradient id="SVGID_00000156579647383056551820000008757731122982469287_" gradientUnits="userSpaceOnUse" x1="404.8664" y1="1183.6272" x2="989.106" y2="927.9966">
				<stop  offset="0" style="stop-color:#FFF75D"/>
				<stop  offset="1.105675e-03" style="stop-color:#FFF65C"/>
				<stop  offset="0.0239" style="stop-color:#FFDF41"/>
				<stop  offset="0.0472" style="stop-color:#FFCE2E"/>
				<stop  offset="0.0711" style="stop-color:#FFC423"/>
				<stop  offset="0.0965" style="stop-color:#FFC11F"/>
				<stop  offset="0.1937" style="stop-color:#FE650D"/>
				<stop  offset="0.2955" style="stop-color:#F33C04"/>
				<stop  offset="0.3827" style="stop-color:#DA1F05"/>
				<stop  offset="0.5084" style="stop-color:#A10100"/>
				<stop  offset="0.6229" style="stop-color:#DA1F05"/>
				<stop  offset="0.7312" style="stop-color:#F33C04"/>
				<stop  offset="0.8361" style="stop-color:#FE650D"/>
				<stop  offset="0.933" style="stop-color:#FFC11F"/>
				<stop  offset="1" style="stop-color:#FFF75D"/>
			</linearGradient>
			<path style="fill:url(#SVGID_00000156579647383056551820000008757731122982469287_);" d="M504.99,989.13h33.08v119.35h-33.08
				V989.13z"/>
			
				<linearGradient id="SVGID_00000090978221705573036750000000529624904593573787_" gradientUnits="userSpaceOnUse" x1="404.8664" y1="1183.6272" x2="989.106" y2="927.9966">
				<stop  offset="0" style="stop-color:#FFF75D"/>
				<stop  offset="1.105675e-03" style="stop-color:#FFF65C"/>
				<stop  offset="0.0239" style="stop-color:#FFDF41"/>
				<stop  offset="0.0472" style="stop-color:#FFCE2E"/>
				<stop  offset="0.0711" style="stop-color:#FFC423"/>
				<stop  offset="0.0965" style="stop-color:#FFC11F"/>
				<stop  offset="0.1937" style="stop-color:#FE650D"/>
				<stop  offset="0.2955" style="stop-color:#F33C04"/>
				<stop  offset="0.3827" style="stop-color:#DA1F05"/>
				<stop  offset="0.5084" style="stop-color:#A10100"/>
				<stop  offset="0.6229" style="stop-color:#DA1F05"/>
				<stop  offset="0.7312" style="stop-color:#F33C04"/>
				<stop  offset="0.8361" style="stop-color:#FE650D"/>
				<stop  offset="0.933" style="stop-color:#FFC11F"/>
				<stop  offset="1" style="stop-color:#FFF75D"/>
			</linearGradient>
			<path style="fill:url(#SVGID_00000090978221705573036750000000529624904593573787_);" d="M559.9,989.13h30.86l49.1,63.09v-63.09
				h32.74v119.35h-28.81L592.63,1043v65.47H559.9V989.13z"/>
			
				<linearGradient id="SVGID_00000134247471072849015890000015357344710539036036_" gradientUnits="userSpaceOnUse" x1="404.8664" y1="1183.6272" x2="989.106" y2="927.9966">
				<stop  offset="0" style="stop-color:#FFF75D"/>
				<stop  offset="1.105675e-03" style="stop-color:#FFF65C"/>
				<stop  offset="0.0239" style="stop-color:#FFDF41"/>
				<stop  offset="0.0472" style="stop-color:#FFCE2E"/>
				<stop  offset="0.0711" style="stop-color:#FFC423"/>
				<stop  offset="0.0965" style="stop-color:#FFC11F"/>
				<stop  offset="0.1937" style="stop-color:#FE650D"/>
				<stop  offset="0.2955" style="stop-color:#F33C04"/>
				<stop  offset="0.3827" style="stop-color:#DA1F05"/>
				<stop  offset="0.5084" style="stop-color:#A10100"/>
				<stop  offset="0.6229" style="stop-color:#DA1F05"/>
				<stop  offset="0.7312" style="stop-color:#F33C04"/>
				<stop  offset="0.8361" style="stop-color:#FE650D"/>
				<stop  offset="0.933" style="stop-color:#FFC11F"/>
				<stop  offset="1" style="stop-color:#FFF75D"/>
			</linearGradient>
			<path style="fill:url(#SVGID_00000134247471072849015890000015357344710539036036_);" d="M722.9,1018.11h-35.63v-28.99h104.52
				v28.99h-35.8v90.37H722.9V1018.11z"/>
			
				<linearGradient id="SVGID_00000073707344466109969470000000832925882010762907_" gradientUnits="userSpaceOnUse" x1="404.8664" y1="1183.6272" x2="989.106" y2="927.9966">
				<stop  offset="0" style="stop-color:#FFF75D"/>
				<stop  offset="1.105675e-03" style="stop-color:#FFF65C"/>
				<stop  offset="0.0239" style="stop-color:#FFDF41"/>
				<stop  offset="0.0472" style="stop-color:#FFCE2E"/>
				<stop  offset="0.0711" style="stop-color:#FFC423"/>
				<stop  offset="0.0965" style="stop-color:#FFC11F"/>
				<stop  offset="0.1937" style="stop-color:#FE650D"/>
				<stop  offset="0.2955" style="stop-color:#F33C04"/>
				<stop  offset="0.3827" style="stop-color:#DA1F05"/>
				<stop  offset="0.5084" style="stop-color:#A10100"/>
				<stop  offset="0.6229" style="stop-color:#DA1F05"/>
				<stop  offset="0.7312" style="stop-color:#F33C04"/>
				<stop  offset="0.8361" style="stop-color:#FE650D"/>
				<stop  offset="0.933" style="stop-color:#FFC11F"/>
				<stop  offset="1" style="stop-color:#FFF75D"/>
			</linearGradient>
			<path style="fill:url(#SVGID_00000073707344466109969470000000832925882010762907_);" d="M806.27,989.13h95.99v27.96h-63.26
				v18.24h57.29v26.09h-57.29v18.93h64.11v28.13h-96.84V989.13z"/>
			
				<linearGradient id="SVGID_00000145052911056520435110000013263812435925908386_" gradientUnits="userSpaceOnUse" x1="404.8664" y1="1183.6272" x2="989.106" y2="927.9966">
				<stop  offset="0" style="stop-color:#FFF75D"/>
				<stop  offset="1.105675e-03" style="stop-color:#FFF65C"/>
				<stop  offset="0.0239" style="stop-color:#FFDF41"/>
				<stop  offset="0.0472" style="stop-color:#FFCE2E"/>
				<stop  offset="0.0711" style="stop-color:#FFC423"/>
				<stop  offset="0.0965" style="stop-color:#FFC11F"/>
				<stop  offset="0.1937" style="stop-color:#FE650D"/>
				<stop  offset="0.2955" style="stop-color:#F33C04"/>
				<stop  offset="0.3827" style="stop-color:#DA1F05"/>
				<stop  offset="0.5084" style="stop-color:#A10100"/>
				<stop  offset="0.6229" style="stop-color:#DA1F05"/>
				<stop  offset="0.7312" style="stop-color:#F33C04"/>
				<stop  offset="0.8361" style="stop-color:#FE650D"/>
				<stop  offset="0.933" style="stop-color:#FFC11F"/>
				<stop  offset="1" style="stop-color:#FFF75D"/>
			</linearGradient>
			<path style="fill:url(#SVGID_00000145052911056520435110000013263812435925908386_);" d="M1030.83,989.13l-39.21,58.14
				l40.92,61.21h-38.02l-22.85-36.15l-23.02,36.15h-37.17l40.92-60.7l-39.22-58.65h38.02l20.97,33.59l21.48-33.59H1030.83z"/>
		</g>
	</g>
</g>
</svg>
